<svg width="48" height="48" viewBox="0 0 48 48" fill="none" xmlns="http://www.w3.org/2000/svg">
<rect width="48" height="48" rx="24" fill="#2C2E7E"/>
<path fill-rule="evenodd" clip-rule="evenodd" d="M32.75 13.5H29.25V11.75H27.5V13.5H20.5V11.75H18.75V13.5H15.25C14.2 13.5 13.5 14.2 13.5 15.25V32.75C13.5 33.8 14.2 34.5 15.25 34.5H32.75C33.8 34.5 34.5 33.8 34.5 32.75V15.25C34.5 14.2 33.8 13.5 32.75 13.5ZM32.75 32.75H15.25V20.5H32.75V32.75ZM32.75 18.75H15.25V15.25H18.75V17H20.5V15.25H27.5V17H29.25V15.25H32.75V18.75Z" fill="white"/>
</svg>
