<svg width="315" height="237" viewBox="0 0 315 237" fill="none" xmlns="http://www.w3.org/2000/svg">
<path d="M219.008 61.59V83.91C219.008 85.35 218.768 86.67 218.288 87.87C217.838 89.04 217.163 90.045 216.263 90.885C215.363 91.695 214.268 92.34 212.978 92.82C211.718 93.27 210.278 93.495 208.658 93.495C207.098 93.495 205.718 93.285 204.518 92.865C203.348 92.445 202.328 91.845 201.458 91.065C200.618 90.285 199.928 89.355 199.388 88.275C198.848 87.195 198.473 85.995 198.263 84.675L204.653 83.415C205.163 86.145 206.468 87.51 208.568 87.51C209.558 87.51 210.398 87.195 211.088 86.565C211.808 85.935 212.168 84.945 212.168 83.595V67.08H202.628V61.59H219.008ZM244.123 93L241.873 85.53H231.388L229.138 93H222.208L232.558 61.59H241.018L251.233 93H244.123ZM236.698 67.8H236.473L233.008 79.725H240.208L236.698 67.8ZM265.748 93.54C262.988 93.54 260.648 93.075 258.728 92.145C256.808 91.185 255.173 89.955 253.823 88.455L258.323 83.91C260.453 86.31 263.078 87.51 266.198 87.51C267.878 87.51 269.123 87.165 269.933 86.475C270.743 85.785 271.148 84.87 271.148 83.73C271.148 82.86 270.908 82.14 270.428 81.57C269.948 80.97 268.973 80.565 267.503 80.355L264.398 79.95C261.068 79.53 258.623 78.525 257.063 76.935C255.533 75.345 254.768 73.23 254.768 70.59C254.768 69.18 255.038 67.89 255.578 66.72C256.118 65.55 256.883 64.545 257.873 63.705C258.893 62.865 260.123 62.22 261.563 61.77C263.033 61.29 264.698 61.05 266.558 61.05C268.928 61.05 271.013 61.425 272.813 62.175C274.613 62.925 276.158 64.02 277.448 65.46L272.903 70.05C272.153 69.18 271.238 68.475 270.158 67.935C269.108 67.365 267.773 67.08 266.153 67.08C264.623 67.08 263.483 67.35 262.733 67.89C261.983 68.43 261.608 69.18 261.608 70.14C261.608 71.22 261.893 72 262.463 72.48C263.063 72.96 264.023 73.305 265.343 73.515L268.448 74.01C271.688 74.52 274.088 75.525 275.648 77.025C277.208 78.495 277.988 80.595 277.988 83.325C277.988 84.825 277.718 86.205 277.178 87.465C276.638 88.725 275.843 89.805 274.793 90.705C273.773 91.605 272.498 92.31 270.968 92.82C269.438 93.3 267.698 93.54 265.748 93.54ZM303.009 93L300.759 85.53H290.274L288.024 93H281.094L291.444 61.59H299.904L310.119 93H303.009ZM295.584 67.8H295.359L291.894 79.725H299.094L295.584 67.8ZM71.9741 115.665V141H65.1341V115.665H56.6291V109.59H80.4791V115.665H71.9741ZM85.1584 141V109.59H106.533V115.665H91.9984V122.1H104.463V128.13H91.9984V134.925H106.533V141H85.1584ZM123.427 127.32L119.332 132.27V141H112.492V109.59H119.332V124.53H119.602L124.057 118.455L131.122 109.59H138.862L128.287 122.505L139.807 141H131.752L123.427 127.32ZM153.41 126.15L150.395 119.85H150.26V141H143.825V109.59H151.295L159.89 124.44L162.905 130.74H163.04V109.59H169.475V141H162.005L153.41 126.15ZM188.989 141.54C186.919 141.54 185.029 141.195 183.319 140.505C181.609 139.815 180.154 138.795 178.954 137.445C177.754 136.065 176.824 134.37 176.164 132.36C175.504 130.32 175.174 127.965 175.174 125.295C175.174 122.625 175.504 120.285 176.164 118.275C176.824 116.235 177.754 114.54 178.954 113.19C180.154 111.81 181.609 110.775 183.319 110.085C185.029 109.395 186.919 109.05 188.989 109.05C191.059 109.05 192.949 109.395 194.659 110.085C196.369 110.775 197.824 111.81 199.024 113.19C200.224 114.54 201.154 116.235 201.814 118.275C202.474 120.285 202.804 122.625 202.804 125.295C202.804 127.965 202.474 130.32 201.814 132.36C201.154 134.37 200.224 136.065 199.024 137.445C197.824 138.795 196.369 139.815 194.659 140.505C192.949 141.195 191.059 141.54 188.989 141.54ZM188.989 135.465C191.059 135.465 192.664 134.79 193.804 133.44C194.974 132.09 195.559 130.155 195.559 127.635V122.955C195.559 120.435 194.974 118.5 193.804 117.15C192.664 115.8 191.059 115.125 188.989 115.125C186.919 115.125 185.299 115.8 184.129 117.15C182.989 118.5 182.419 120.435 182.419 122.955V127.635C182.419 130.155 182.989 132.09 184.129 133.44C185.299 134.79 186.919 135.465 188.989 135.465ZM208.513 141V109.59H215.353V134.925H227.323V141H208.513ZM243.173 141.54C241.103 141.54 239.213 141.195 237.503 140.505C235.793 139.815 234.338 138.795 233.138 137.445C231.938 136.065 231.008 134.37 230.348 132.36C229.688 130.32 229.358 127.965 229.358 125.295C229.358 122.625 229.688 120.285 230.348 118.275C231.008 116.235 231.938 114.54 233.138 113.19C234.338 111.81 235.793 110.775 237.503 110.085C239.213 109.395 241.103 109.05 243.173 109.05C245.243 109.05 247.133 109.395 248.843 110.085C250.553 110.775 252.008 111.81 253.208 113.19C254.408 114.54 255.338 116.235 255.998 118.275C256.658 120.285 256.988 122.625 256.988 125.295C256.988 127.965 256.658 130.32 255.998 132.36C255.338 134.37 254.408 136.065 253.208 137.445C252.008 138.795 250.553 139.815 248.843 140.505C247.133 141.195 245.243 141.54 243.173 141.54ZM243.173 135.465C245.243 135.465 246.848 134.79 247.988 133.44C249.158 132.09 249.743 130.155 249.743 127.635V122.955C249.743 120.435 249.158 118.5 247.988 117.15C246.848 115.8 245.243 115.125 243.173 115.125C241.103 115.125 239.483 115.8 238.313 117.15C237.173 118.5 236.603 120.435 236.603 122.955V127.635C236.603 130.155 237.173 132.09 238.313 133.44C239.483 134.79 241.103 135.465 243.173 135.465ZM282.632 136.005H282.407C282.167 137.595 281.357 138.915 279.977 139.965C278.597 141.015 276.722 141.54 274.352 141.54C272.552 141.54 270.872 141.195 269.312 140.505C267.752 139.815 266.387 138.795 265.217 137.445C264.047 136.095 263.132 134.415 262.472 132.405C261.812 130.395 261.482 128.07 261.482 125.43C261.482 122.79 261.827 120.45 262.517 118.41C263.207 116.37 264.167 114.66 265.397 113.28C266.657 111.9 268.157 110.85 269.897 110.13C271.637 109.41 273.572 109.05 275.702 109.05C278.522 109.05 280.952 109.665 282.992 110.895C285.032 112.095 286.637 113.91 287.807 116.34L282.227 119.535C281.747 118.305 280.997 117.27 279.977 116.43C278.957 115.56 277.532 115.125 275.702 115.125C273.572 115.125 271.877 115.74 270.617 116.97C269.357 118.2 268.727 120.135 268.727 122.775V127.815C268.727 130.425 269.357 132.36 270.617 133.62C271.877 134.85 273.572 135.465 275.702 135.465C276.542 135.465 277.337 135.375 278.087 135.195C278.837 134.985 279.497 134.685 280.067 134.295C280.637 133.875 281.072 133.38 281.372 132.81C281.702 132.24 281.867 131.565 281.867 130.785V129.21H276.017V123.495H288.392V141H282.632V136.005ZM293.826 141V135.555H297.876V115.035H293.826V109.59H308.766V115.035H304.716V135.555H308.766V141H293.826ZM58.6748 189V183.555H62.7248V163.035H58.6748V157.59H73.6148V163.035H69.5648V183.555H73.6148V189H58.6748ZM88.8986 174.15L85.8836 167.85H85.7486V189H79.3136V157.59H86.7836L95.3786 172.44L98.3936 178.74H98.5286V157.59H104.964V189H97.4936L88.8986 174.15ZM111.877 189V157.59H132.712V163.665H118.717V170.1H130.642V176.13H118.717V189H111.877ZM149.438 189.54C147.368 189.54 145.478 189.195 143.768 188.505C142.058 187.815 140.603 186.795 139.403 185.445C138.203 184.065 137.273 182.37 136.613 180.36C135.953 178.32 135.623 175.965 135.623 173.295C135.623 170.625 135.953 168.285 136.613 166.275C137.273 164.235 138.203 162.54 139.403 161.19C140.603 159.81 142.058 158.775 143.768 158.085C145.478 157.395 147.368 157.05 149.438 157.05C151.508 157.05 153.398 157.395 155.108 158.085C156.818 158.775 158.273 159.81 159.473 161.19C160.673 162.54 161.603 164.235 162.263 166.275C162.923 168.285 163.253 170.625 163.253 173.295C163.253 175.965 162.923 178.32 162.263 180.36C161.603 182.37 160.673 184.065 159.473 185.445C158.273 186.795 156.818 187.815 155.108 188.505C153.398 189.195 151.508 189.54 149.438 189.54ZM149.438 183.465C151.508 183.465 153.113 182.79 154.253 181.44C155.423 180.09 156.008 178.155 156.008 175.635V170.955C156.008 168.435 155.423 166.5 154.253 165.15C153.113 163.8 151.508 163.125 149.438 163.125C147.368 163.125 145.748 163.8 144.578 165.15C143.438 166.5 142.868 168.435 142.868 170.955V175.635C142.868 178.155 143.438 180.09 144.578 181.44C145.748 182.79 147.368 183.465 149.438 183.465ZM175.802 189H168.962V157.59H183.857C185.297 157.59 186.602 157.83 187.772 158.31C188.942 158.79 189.932 159.48 190.742 160.38C191.582 161.25 192.227 162.3 192.677 163.53C193.127 164.76 193.352 166.125 193.352 167.625C193.352 169.755 192.872 171.615 191.912 173.205C190.982 174.795 189.557 175.95 187.637 176.67L193.802 189H186.197L180.707 177.48H175.802V189ZM183.002 171.72C184.022 171.72 184.817 171.465 185.387 170.955C185.987 170.415 186.287 169.635 186.287 168.615V166.635C186.287 165.615 185.987 164.85 185.387 164.34C184.817 163.8 184.022 163.53 183.002 163.53H175.802V171.72H183.002ZM222.774 168.39H222.639L220.344 172.98L214.224 184.095L208.239 173.025L205.854 168.075H205.719V189H199.284V157.59H206.529L214.224 172.305H214.314L221.919 157.59H229.209V189H222.774V168.39ZM255.504 189L253.254 181.53H242.769L240.519 189H233.589L243.939 157.59H252.399L262.614 189H255.504ZM248.079 163.8H247.854L244.389 175.725H251.589L248.079 163.8ZM277.13 189.54C274.37 189.54 272.03 189.075 270.11 188.145C268.19 187.185 266.555 185.955 265.205 184.455L269.705 179.91C271.835 182.31 274.46 183.51 277.58 183.51C279.26 183.51 280.505 183.165 281.315 182.475C282.125 181.785 282.53 180.87 282.53 179.73C282.53 178.86 282.29 178.14 281.81 177.57C281.33 176.97 280.355 176.565 278.885 176.355L275.78 175.95C272.45 175.53 270.005 174.525 268.445 172.935C266.915 171.345 266.15 169.23 266.15 166.59C266.15 165.18 266.42 163.89 266.96 162.72C267.5 161.55 268.265 160.545 269.255 159.705C270.275 158.865 271.505 158.22 272.945 157.77C274.415 157.29 276.08 157.05 277.94 157.05C280.31 157.05 282.395 157.425 284.195 158.175C285.995 158.925 287.54 160.02 288.83 161.46L284.285 166.05C283.535 165.18 282.62 164.475 281.54 163.935C280.49 163.365 279.155 163.08 277.535 163.08C276.005 163.08 274.865 163.35 274.115 163.89C273.365 164.43 272.99 165.18 272.99 166.14C272.99 167.22 273.275 168 273.845 168.48C274.445 168.96 275.405 169.305 276.725 169.515L279.83 170.01C283.07 170.52 285.47 171.525 287.03 173.025C288.59 174.495 289.37 176.595 289.37 179.325C289.37 180.825 289.1 182.205 288.56 183.465C288.02 184.725 287.225 185.805 286.175 186.705C285.155 187.605 283.88 188.31 282.35 188.82C280.82 189.3 279.08 189.54 277.13 189.54ZM293.826 189V183.555H297.876V163.035H293.826V157.59H308.766V163.035H304.716V183.555H308.766V189H293.826Z" fill="white"/>
<path d="M229.764 237V233.85H234.174V208.74H229.764V205.59H242.364V208.74H237.954V233.85H242.364V237H229.764ZM249.267 205.59H262.182C264.792 205.59 266.832 206.325 268.302 207.795C269.802 209.265 270.552 211.23 270.552 213.69C270.552 214.86 270.387 215.85 270.057 216.66C269.727 217.47 269.307 218.145 268.797 218.685C268.287 219.195 267.732 219.585 267.132 219.855C266.532 220.095 265.977 220.26 265.467 220.35V220.62C266.037 220.65 266.667 220.8 267.357 221.07C268.077 221.34 268.752 221.775 269.382 222.375C270.012 222.945 270.537 223.695 270.957 224.625C271.407 225.525 271.632 226.62 271.632 227.91C271.632 229.2 271.422 230.4 271.002 231.51C270.612 232.62 270.057 233.58 269.337 234.39C268.617 235.2 267.762 235.845 266.772 236.325C265.782 236.775 264.702 237 263.532 237H249.267V205.59ZM253.047 233.67H262.362C263.982 233.67 265.257 233.265 266.187 232.455C267.117 231.615 267.582 230.4 267.582 228.81V227.28C267.582 225.69 267.117 224.49 266.187 223.68C265.257 222.84 263.982 222.42 262.362 222.42H253.047V233.67ZM253.047 219.18H261.732C263.232 219.18 264.402 218.805 265.242 218.055C266.082 217.305 266.502 216.225 266.502 214.815V213.285C266.502 211.875 266.082 210.795 265.242 210.045C264.402 209.295 263.232 208.92 261.732 208.92H253.047V219.18ZM303.146 210.54H302.921L300.266 215.805L292.751 229.485L285.236 215.805L282.581 210.54H282.356V237H278.666V205.59H283.706L292.706 222.51H292.931L301.976 205.59H306.836V237H303.146V210.54Z" fill="#1E9FEE"/>
<path d="M84.478 34V6.08H97.038C98.318 6.08 99.4646 6.29333 100.478 6.72C101.518 7.12 102.398 7.70667 103.118 8.48C103.838 9.22667 104.385 10.1333 104.758 11.2C105.131 12.2667 105.318 13.44 105.318 14.72C105.318 16.0267 105.131 17.2133 104.758 18.28C104.385 19.32 103.838 20.2267 103.118 21C102.398 21.7467 101.518 22.3333 100.478 22.76C99.4646 23.16 98.318 23.36 97.038 23.36H89.758V34H84.478ZM89.758 18.8H96.558C97.5713 18.8 98.3713 18.5333 98.958 18C99.5446 17.44 99.838 16.6533 99.838 15.64V13.8C99.838 12.7867 99.5446 12.0133 98.958 11.48C98.3713 10.9467 97.5713 10.68 96.558 10.68H89.758V18.8ZM117.282 34.48C115.788 34.48 114.442 34.2267 113.242 33.72C112.068 33.2133 111.055 32.48 110.202 31.52C109.375 30.56 108.735 29.4133 108.282 28.08C107.828 26.72 107.602 25.2 107.602 23.52C107.602 21.84 107.828 20.3333 108.282 19C108.735 17.6667 109.375 16.5333 110.202 15.6C111.055 14.64 112.068 13.9067 113.242 13.4C114.442 12.8933 115.788 12.64 117.282 12.64C118.775 12.64 120.122 12.8933 121.322 13.4C122.522 13.9067 123.535 14.64 124.362 15.6C125.215 16.5333 125.868 17.6667 126.322 19C126.775 20.3333 127.002 21.84 127.002 23.52C127.002 25.2 126.775 26.72 126.322 28.08C125.868 29.4133 125.215 30.56 124.362 31.52C123.535 32.48 122.522 33.2133 121.322 33.72C120.122 34.2267 118.775 34.48 117.282 34.48ZM117.282 30.36C118.642 30.36 119.708 29.9467 120.482 29.12C121.255 28.2933 121.642 27.08 121.642 25.48V21.6C121.642 20.0267 121.255 18.8267 120.482 18C119.708 17.1733 118.642 16.76 117.282 16.76C115.948 16.76 114.895 17.1733 114.122 18C113.348 18.8267 112.962 20.0267 112.962 21.6V25.48C112.962 27.08 113.348 28.2933 114.122 29.12C114.895 29.9467 115.948 30.36 117.282 30.36ZM129.149 13.12H134.069L136.189 21.72L137.829 28.88H137.989L139.909 21.72L142.349 13.12H146.989L149.509 21.72L151.469 28.88H151.629L153.269 21.72L155.349 13.12H160.109L154.389 34H148.869L146.189 24.8L144.629 19.12H144.509L142.989 24.8L140.349 34H134.909L129.149 13.12ZM172.051 34.48C170.504 34.48 169.118 34.2267 167.891 33.72C166.691 33.1867 165.664 32.4533 164.811 31.52C163.984 30.56 163.344 29.4133 162.891 28.08C162.438 26.72 162.211 25.2 162.211 23.52C162.211 21.8667 162.424 20.3733 162.851 19.04C163.304 17.7067 163.944 16.5733 164.771 15.64C165.598 14.68 166.611 13.9467 167.811 13.44C169.011 12.9067 170.371 12.64 171.891 12.64C173.518 12.64 174.931 12.92 176.131 13.48C177.331 14.04 178.318 14.8 179.091 15.76C179.864 16.72 180.438 17.84 180.811 19.12C181.211 20.3733 181.411 21.72 181.411 23.16V24.84H167.531V25.36C167.531 26.88 167.958 28.1067 168.811 29.04C169.664 29.9467 170.931 30.4 172.611 30.4C173.891 30.4 174.931 30.1333 175.731 29.6C176.558 29.0667 177.291 28.3867 177.931 27.56L180.691 30.64C179.838 31.84 178.664 32.7867 177.171 33.48C175.704 34.1467 173.998 34.48 172.051 34.48ZM171.971 16.48C170.611 16.48 169.531 16.9333 168.731 17.84C167.931 18.7467 167.531 19.92 167.531 21.36V21.68H176.091V21.32C176.091 19.88 175.731 18.72 175.011 17.84C174.318 16.9333 173.304 16.48 171.971 16.48ZM185.916 34V13.12H191.036V17.44H191.236C191.369 16.88 191.569 16.3467 191.836 15.84C192.129 15.3067 192.502 14.84 192.956 14.44C193.409 14.04 193.942 13.72 194.556 13.48C195.196 13.24 195.929 13.12 196.756 13.12H197.876V17.96H196.276C194.542 17.96 193.236 18.2133 192.356 18.72C191.476 19.2267 191.036 20.0533 191.036 21.2V34H185.916ZM209.864 34.48C208.317 34.48 206.93 34.2267 205.704 33.72C204.504 33.1867 203.477 32.4533 202.624 31.52C201.797 30.56 201.157 29.4133 200.704 28.08C200.25 26.72 200.024 25.2 200.024 23.52C200.024 21.8667 200.237 20.3733 200.664 19.04C201.117 17.7067 201.757 16.5733 202.584 15.64C203.41 14.68 204.424 13.9467 205.624 13.44C206.824 12.9067 208.184 12.64 209.704 12.64C211.33 12.64 212.744 12.92 213.944 13.48C215.144 14.04 216.13 14.8 216.904 15.76C217.677 16.72 218.25 17.84 218.624 19.12C219.024 20.3733 219.224 21.72 219.224 23.16V24.84H205.344V25.36C205.344 26.88 205.77 28.1067 206.624 29.04C207.477 29.9467 208.744 30.4 210.424 30.4C211.704 30.4 212.744 30.1333 213.544 29.6C214.37 29.0667 215.104 28.3867 215.744 27.56L218.504 30.64C217.65 31.84 216.477 32.7867 214.984 33.48C213.517 34.1467 211.81 34.48 209.864 34.48ZM209.784 16.48C208.424 16.48 207.344 16.9333 206.544 17.84C205.744 18.7467 205.344 19.92 205.344 21.36V21.68H213.904V21.32C213.904 19.88 213.544 18.72 212.824 17.84C212.13 16.9333 211.117 16.48 209.784 16.48ZM236.688 30.52H236.488C236.115 31.72 235.408 32.68 234.368 33.4C233.328 34.12 232.115 34.48 230.728 34.48C228.088 34.48 226.062 33.5333 224.648 31.64C223.262 29.7467 222.568 27.04 222.568 23.52C222.568 20.0267 223.262 17.3467 224.648 15.48C226.062 13.5867 228.088 12.64 230.728 12.64C232.115 12.64 233.328 13 234.368 13.72C235.408 14.4133 236.115 15.36 236.488 16.56H236.688V4.4H241.808V34H236.688V30.52ZM232.368 30.24C233.595 30.24 234.622 29.9467 235.448 29.36C236.275 28.7733 236.688 27.9333 236.688 26.84V20.2C236.688 19.1867 236.275 18.3733 235.448 17.76C234.622 17.1467 233.595 16.84 232.368 16.84C231.035 16.84 229.955 17.2933 229.128 18.2C228.328 19.08 227.928 20.2667 227.928 21.76V25.36C227.928 26.8533 228.328 28.04 229.128 28.92C229.955 29.8 231.035 30.24 232.368 30.24ZM257.486 6.08H270.406C271.552 6.08 272.579 6.25333 273.486 6.6C274.419 6.94666 275.206 7.42666 275.846 8.04C276.486 8.65333 276.966 9.41333 277.286 10.32C277.632 11.2 277.806 12.1733 277.806 13.24C277.806 14.3067 277.659 15.2133 277.366 15.96C277.099 16.68 276.726 17.28 276.246 17.76C275.792 18.24 275.259 18.6 274.646 18.84C274.059 19.08 273.446 19.2133 272.806 19.24V19.48C273.419 19.48 274.072 19.6 274.766 19.84C275.486 20.08 276.139 20.4667 276.726 21C277.339 21.5067 277.846 22.1733 278.246 23C278.646 23.8 278.846 24.8 278.846 26C278.846 27.12 278.659 28.1733 278.286 29.16C277.939 30.12 277.446 30.96 276.806 31.68C276.166 32.4 275.406 32.9733 274.526 33.4C273.646 33.8 272.686 34 271.646 34H257.486V6.08ZM262.766 29.52H270.126C271.139 29.52 271.926 29.2667 272.486 28.76C273.046 28.2267 273.326 27.4667 273.326 26.48V25.12C273.326 24.1333 273.046 23.3733 272.486 22.84C271.926 22.3067 271.139 22.04 270.126 22.04H262.766V29.52ZM262.766 17.72H269.286C270.246 17.72 270.992 17.4667 271.526 16.96C272.059 16.4267 272.326 15.6933 272.326 14.76V13.52C272.326 12.5867 272.059 11.8667 271.526 11.36C270.992 10.8267 270.246 10.56 269.286 10.56H262.766V17.72ZM296.138 13.12H300.938L292.538 37.72C292.271 38.4667 291.964 39.1067 291.618 39.64C291.298 40.2 290.911 40.6533 290.458 41C290.004 41.3467 289.458 41.6 288.818 41.76C288.178 41.92 287.431 42 286.578 42H283.498V37.92H287.258L288.218 35L280.738 13.12H285.818L289.458 24.16L290.818 29.44H291.058L292.498 24.16L296.138 13.12ZM307.714 34.44C306.621 34.44 305.808 34.1733 305.274 33.64C304.768 33.08 304.514 32.3733 304.514 31.52V30.8C304.514 29.9467 304.768 29.24 305.274 28.68C305.808 28.12 306.621 27.84 307.714 27.84C308.834 27.84 309.648 28.12 310.154 28.68C310.661 29.24 310.914 29.9467 310.914 30.8V31.52C310.914 32.3733 310.661 33.08 310.154 33.64C309.648 34.1733 308.834 34.44 307.714 34.44ZM307.714 19.28C306.621 19.28 305.808 19.0133 305.274 18.48C304.768 17.92 304.514 17.2133 304.514 16.36V15.64C304.514 14.7867 304.768 14.08 305.274 13.52C305.808 12.96 306.621 12.68 307.714 12.68C308.834 12.68 309.648 12.96 310.154 13.52C310.661 14.08 310.914 14.7867 310.914 15.64V16.36C310.914 17.2133 310.661 17.92 310.154 18.48C309.648 19.0133 308.834 19.28 307.714 19.28Z" fill="#1295E4"/>
</svg>
