<svg width="48" height="48" viewBox="0 0 48 48" fill="none" xmlns="http://www.w3.org/2000/svg">
<rect width="48" height="48" rx="24" fill="#2C2E7E"/>
<path fill-rule="evenodd" clip-rule="evenodd" d="M14.368 21.1221C14.44 15.8772 18.7481 11.6827 23.993 11.7508C29.2379 11.6827 33.546 15.8772 33.618 21.1221C33.6158 23.1587 32.9388 25.1372 31.693 26.7483L23.993 38.0008L16.293 26.7483C15.0471 25.1372 14.3702 23.1587 14.368 21.1221ZM31.868 21.1221C31.7865 16.8478 28.2676 13.4423 23.993 13.5008C19.7184 13.4423 16.1994 16.8478 16.118 21.1221C16.1167 22.804 16.6876 24.4363 17.7367 25.7508L23.993 34.9033L30.3017 25.6808C31.3172 24.3782 31.8685 22.7737 31.868 21.1221ZM24 18.75C25.4497 18.75 26.625 19.9253 26.625 21.375C26.625 22.8247 25.4497 24 24 24C22.5502 24 21.375 22.8247 21.375 21.375C21.375 19.9253 22.5502 18.75 24 18.75ZM19.625 21.375C19.625 18.9588 21.5837 17 24 17C26.4162 17 28.375 18.9588 28.375 21.375C28.375 23.7912 26.4162 25.75 24 25.75C21.5837 25.75 19.625 23.7912 19.625 21.375Z" fill="white"/>
</svg>
