<svg width="17" height="18" viewBox="0 0 17 18" fill="none" xmlns="http://www.w3.org/2000/svg">
<g clip-path="url(#clip0)">
<path fill-rule="evenodd" clip-rule="evenodd" d="M9.00426 1.73631C11.8635 2.17609 14.0556 4.56937 14.0556 7.44714C14.0556 10.2873 14.6869 10.8889 15.2979 11.4707C17.0273 13.1163 15.7606 15.5282 13.704 15.5282H10.3568C10.3568 16.7533 9.32633 17.7465 8.05525 17.7465C6.78418 17.7465 5.75375 16.7533 5.75375 15.5282H2.40648C0.349764 15.5282 -0.916852 13.1172 0.812724 11.4706C1.42377 10.8887 2.05492 10.2871 2.05492 7.44718C2.05492 4.56941 4.24703 2.17613 7.10621 1.73635C6.97453 1.55184 6.90418 1.3331 6.9045 1.10915C6.9045 0.496589 7.41972 0 8.05525 0C8.69079 0 9.206 0.496589 9.206 1.10915C9.20632 1.33309 9.13596 1.55183 9.00426 1.73631ZM7.19219 15.5282C7.19219 15.9869 7.57934 16.36 8.05525 16.36C8.53116 16.36 8.91831 15.9869 8.91831 15.5282H7.19219Z" fill="white"/>
<path fill-rule="evenodd" clip-rule="evenodd" d="M13.5217 5C14.9144 5 16.0434 3.88071 16.0434 2.5C16.0434 1.11929 14.9144 0 13.5217 0C12.129 0 11 1.11929 11 2.5C11 3.88071 12.129 5 13.5217 5Z" fill="#FF0000"/>
</g>
<defs>
<clipPath id="clip0">
<rect width="17" height="18" fill="white"/>
</clipPath>
</defs>
</svg>
