<svg width="44" height="44" viewBox="0 0 44 44" fill="none" xmlns="http://www.w3.org/2000/svg">
<g filter="url(#filter0_d_5139:6047)">
<g filter="url(#filter1_di_5139:6047)">
<path d="M21.2712 31.6505L18.3892 25.3576C18.2129 24.9726 18.2639 24.4937 18.515 24.1754L21.3971 20.5225C21.7247 20.1073 22.2725 20.1073 22.6001 20.5225L25.4822 24.1754C25.7333 24.4937 25.7843 24.9726 25.608 25.3576L22.7259 31.6505C22.4094 32.3417 21.5878 32.3417 21.2712 31.6505Z" fill="#FFF8DE"/>
</g>
<path d="M10.849 31.1418C10.849 30.6124 11.2912 30.1832 11.8366 30.1832H32.1651C32.7106 30.1832 33.1527 30.6124 33.1527 31.1418V34.9707C33.1527 35.5001 32.7106 35.9293 32.1651 35.9293H11.8366C11.2912 35.9293 10.849 35.5001 10.849 34.9707V31.1418Z" fill="#FF7A00"/>
<path d="M15.8694 15.6801L20.3033 6.75677C21.004 5.34666 22.9951 5.34666 23.6957 6.75677L28.1297 15.6801C28.6592 16.7456 30.0115 17.0702 30.9582 16.3589L34.5431 13.6654C35.8792 12.6616 37.7552 13.7587 37.5605 15.4301L35.5932 32.3229C35.4806 33.2892 34.6705 34.0175 33.708 34.0175H10.2911C9.3286 34.0175 8.51845 33.2892 8.40591 32.3229L6.43857 15.4301C6.24392 13.7587 8.11993 12.6616 9.45599 13.6654L13.0409 16.3589C13.9876 17.0702 15.3399 16.7456 15.8694 15.6801Z" fill="url(#paint0_radial_5139:6047)"/>
<path d="M20.5087 19.4709C21.2687 18.496 22.7303 18.496 23.4903 19.4709L26.4319 23.2439C26.9751 23.9406 26.9751 24.923 26.4319 25.6197L23.4903 29.3928C22.7303 30.3676 21.2687 30.3676 20.5087 29.3928L17.5671 25.6197C17.0239 24.923 17.0239 23.9406 17.5671 23.2439L20.5087 19.4709Z" fill="url(#paint1_radial_5139:6047)"/>
</g>
<defs>
<filter id="filter0_d_5139:6047" x="2.42456" y="1.69919" width="39.15" height="38.2301" filterUnits="userSpaceOnUse" color-interpolation-filters="sRGB">
<feFlood flood-opacity="0" result="BackgroundImageFix"/>
<feColorMatrix in="SourceAlpha" type="matrix" values="0 0 0 0 0 0 0 0 0 0 0 0 0 0 0 0 0 0 127 0" result="hardAlpha"/>
<feOffset/>
<feGaussianBlur stdDeviation="2"/>
<feColorMatrix type="matrix" values="0 0 0 0 1 0 0 0 0 0.780392 0 0 0 0 0 0 0 0 0.3 0"/>
<feBlend mode="normal" in2="BackgroundImageFix" result="effect1_dropShadow_5139:6047"/>
<feBlend mode="normal" in="SourceGraphic" in2="effect1_dropShadow_5139:6047" result="shape"/>
</filter>
<filter id="filter1_di_5139:6047" x="14.285" y="17.2111" width="15.4272" height="19.9578" filterUnits="userSpaceOnUse" color-interpolation-filters="sRGB">
<feFlood flood-opacity="0" result="BackgroundImageFix"/>
<feColorMatrix in="SourceAlpha" type="matrix" values="0 0 0 0 0 0 0 0 0 0 0 0 0 0 0 0 0 0 127 0" result="hardAlpha"/>
<feOffset dy="1"/>
<feGaussianBlur stdDeviation="2"/>
<feColorMatrix type="matrix" values="0 0 0 0 0 0 0 0 0 0 0 0 0 0 0 0 0 0 0.68 0"/>
<feBlend mode="overlay" in2="BackgroundImageFix" result="effect1_dropShadow_5139:6047"/>
<feBlend mode="normal" in="SourceGraphic" in2="effect1_dropShadow_5139:6047" result="shape"/>
<feColorMatrix in="SourceAlpha" type="matrix" values="0 0 0 0 0 0 0 0 0 0 0 0 0 0 0 0 0 0 127 0" result="hardAlpha"/>
<feOffset dy="-1"/>
<feGaussianBlur stdDeviation="1"/>
<feComposite in2="hardAlpha" operator="arithmetic" k2="-1" k3="1"/>
<feColorMatrix type="matrix" values="0 0 0 0 1 0 0 0 0 0.914286 0 0 0 0 0.55 0 0 0 1 0"/>
<feBlend mode="normal" in2="shape" result="effect2_innerShadow_5139:6047"/>
</filter>
<radialGradient id="paint0_radial_5139:6047" cx="0" cy="0" r="1" gradientUnits="userSpaceOnUse" gradientTransform="translate(15.6521 16.9306) rotate(56.9028) scale(20.3962 18.1518)">
<stop stop-color="#FFEB81"/>
<stop offset="0.682292" stop-color="#FFC839"/>
</radialGradient>
<radialGradient id="paint1_radial_5139:6047" cx="0" cy="0" r="1" gradientUnits="userSpaceOnUse" gradientTransform="translate(20.0582 22.1935) rotate(65.4804) scale(7.66779 8.16638)">
<stop stop-color="#FF7D16"/>
<stop offset="1" stop-color="#FF3E12"/>
</radialGradient>
</defs>
</svg>
